<svg width="50" height="50" viewBox="0 0 50 50" fill="none" xmlns="http://www.w3.org/2000/svg">
<path d="M18.75 17.1875H21.875V26.5625H18.75V17.1875ZM10.9375 20.3125H14.0625V26.5625H10.9375V20.3125ZM3.125 10.9375H6.25V26.5625H3.125V10.9375Z" fill="black"/>
<path d="M18.75 17.1875H21.875V26.5625H18.75V17.1875ZM10.9375 20.3125H14.0625V26.5625H10.9375V20.3125ZM3.125 10.9375H6.25V26.5625H3.125V10.9375Z" fill="url(#paint0_linear_14_602)"/>
<path d="M46.875 44.6656L35.075 32.8656C37.6535 29.784 39.0651 25.8931 39.0625 21.875C39.0625 12.3984 31.3516 4.6875 21.875 4.6875C18.1203 4.6875 14.5547 5.875 11.5609 8.125L13.4359 10.625C15.8662 8.79089 18.8303 7.80305 21.875 7.8125C29.6297 7.8125 35.9375 14.1203 35.9375 21.875C35.9375 29.6297 29.6297 35.9375 21.875 35.9375C19.6904 35.9461 17.5342 35.4415 15.5802 34.4645C13.6262 33.4875 11.9289 32.0653 10.625 30.3125L8.125 32.1906C9.71949 34.3319 11.7942 36.0692 14.1823 37.2627C16.5704 38.4562 19.2053 39.0727 21.875 39.0625C26.0516 39.0625 29.8844 37.5625 32.8656 35.075L44.6656 46.875L46.875 44.6656Z" fill="black"/>
<path d="M46.875 44.6656L35.075 32.8656C37.6535 29.784 39.0651 25.8931 39.0625 21.875C39.0625 12.3984 31.3516 4.6875 21.875 4.6875C18.1203 4.6875 14.5547 5.875 11.5609 8.125L13.4359 10.625C15.8662 8.79089 18.8303 7.80305 21.875 7.8125C29.6297 7.8125 35.9375 14.1203 35.9375 21.875C35.9375 29.6297 29.6297 35.9375 21.875 35.9375C19.6904 35.9461 17.5342 35.4415 15.5802 34.4645C13.6262 33.4875 11.9289 32.0653 10.625 30.3125L8.125 32.1906C9.71949 34.3319 11.7942 36.0692 14.1823 37.2627C16.5704 38.4562 19.2053 39.0727 21.875 39.0625C26.0516 39.0625 29.8844 37.5625 32.8656 35.075L44.6656 46.875L46.875 44.6656Z" fill="url(#paint1_linear_14_602)"/>
<defs>
<linearGradient id="paint0_linear_14_602" x1="12.5" y1="10.9375" x2="12.5" y2="26.5625" gradientUnits="userSpaceOnUse">
<stop stop-color="#3171DE"/>
<stop offset="1" stop-color="#704AF2"/>
</linearGradient>
<linearGradient id="paint1_linear_14_602" x1="27.5" y1="4.6875" x2="27.5" y2="46.875" gradientUnits="userSpaceOnUse">
<stop stop-color="#3171DE"/>
<stop offset="1" stop-color="#704AF2"/>
</linearGradient>
</defs>
</svg>
