<svg width="24" height="25" viewBox="0 0 24 25" fill="none" xmlns="http://www.w3.org/2000/svg">
<path d="M4 19.8247V5.82471C4 5.29427 4.21071 4.78557 4.58579 4.41049C4.96086 4.03542 5.46957 3.82471 6 3.82471H19.4C19.5591 3.82471 19.7117 3.88792 19.8243 4.00044C19.9368 4.11296 20 4.26558 20 4.42471V17.5387M6 17.8247H20M6 21.8247H20" stroke="black" stroke-width="1.5" stroke-linecap="round"/>
<path d="M6 21.8247C5.46957 21.8247 4.96086 21.614 4.58579 21.2389C4.21071 20.8638 4 20.3551 4 19.8247C4 19.2943 4.21071 18.7856 4.58579 18.4105C4.96086 18.0354 5.46957 17.8247 6 17.8247" stroke="black" stroke-width="1.5" stroke-linecap="round" stroke-linejoin="round"/>
<path d="M9 7.82471H15" stroke="black" stroke-width="1.5" stroke-linecap="round"/>
</svg>
