<svg width="50" height="50" viewBox="0 0 50 50" fill="none" xmlns="http://www.w3.org/2000/svg">
<path d="M45.4375 8.20832C42.2292 16.2083 34.1875 27.0833 27.4583 32.4792L23.3542 35.7708C22.8333 36.1458 22.3125 36.4792 21.7292 36.7083C21.7292 36.3333 21.7083 35.9167 21.6458 35.5208C21.4167 33.7708 20.625 32.1458 19.2292 30.75C17.8125 29.3333 16.0833 28.5 14.3125 28.2708C13.8958 28.25 13.4792 28.2083 13.0625 28.25C13.2917 27.6042 13.6458 27 14.0833 26.5L17.3333 22.3958C22.7083 15.6667 33.625 7.58332 41.6042 4.39582C42.8333 3.93749 44.0208 4.27082 44.7708 5.04166C45.5625 5.81249 45.9375 6.99999 45.4375 8.20832Z" stroke="#E27244" stroke-width="3.125" stroke-linecap="round" stroke-linejoin="round"/>
<path d="M21.7291 36.7084C21.7291 39.0001 20.8541 41.1876 19.2083 42.8543C17.9375 44.1251 16.2083 45.0001 14.1458 45.2709L9.02081 45.8334C6.22915 46.1459 3.83331 43.7709 4.16665 40.9376L4.72915 35.8126C5.22915 31.2501 9.04165 28.3334 13.0833 28.2501C13.5 28.2293 13.9375 28.2501 14.3333 28.2709C16.1041 28.5001 17.8333 29.3126 19.25 30.7501C20.6458 32.1459 21.4375 33.7709 21.6666 35.5209C21.6875 35.9167 21.7291 36.3126 21.7291 36.7084Z" stroke="#E27244" stroke-width="3.125" stroke-linecap="round" stroke-linejoin="round"/>
<path d="M29.6667 30.1458C29.6667 24.7083 25.25 20.2916 19.8125 20.2916" stroke="#E27244" stroke-width="3.125" stroke-linecap="round" stroke-linejoin="round"/>
</svg>
