<svg width="20" height="20" viewBox="0 0 20 20" fill="none" xmlns="http://www.w3.org/2000/svg">
<path d="M16.2753 4.60863C16.5193 4.36455 16.5193 3.96882 16.2753 3.72475C16.0312 3.48067 15.6354 3.48067 15.3914 3.72475L9.99997 9.11615L4.60857 3.72475C4.36449 3.48067 3.96876 3.48067 3.72468 3.72475C3.48061 3.96883 3.48061 4.36455 3.72468 4.60863L9.11609 10L3.72471 15.3914C3.48063 15.6355 3.48063 16.0312 3.72471 16.2753C3.96878 16.5194 4.36451 16.5194 4.60859 16.2753L9.99997 10.8839L15.3913 16.2753C15.6354 16.5194 16.0312 16.5194 16.2752 16.2753C16.5193 16.0312 16.5193 15.6355 16.2752 15.3914L10.8839 10L16.2753 4.60863Z" fill="#2C2C2C"/>
</svg>
