<svg width="20" height="21" viewBox="0 0 20 21" fill="none" xmlns="http://www.w3.org/2000/svg">
<g clip-path="url(#clip0_85_5471)">
<path d="M17.9982 10.136C17.9882 10.634 17.5582 11 17.0612 11H10.9992C10.734 11 10.4797 10.8946 10.2921 10.7071C10.1046 10.5196 9.99924 10.2652 9.99924 10V3.938C9.99924 3.44 10.3652 3.011 10.8632 3.001L10.9992 3C11.93 2.99996 12.8514 3.18552 13.7095 3.54584C14.5677 3.90615 15.3453 4.43399 15.997 5.09846C16.6488 5.76293 17.1614 6.55069 17.505 7.41566C17.8486 8.28064 18.0163 9.20545 17.9982 10.136ZM10.9992 4V10H16.9992C16.9992 8.4087 16.3671 6.88258 15.2419 5.75736C14.1167 4.63214 12.5905 4 10.9992 4ZM8.99924 5.519C8.9993 5.4501 8.98512 5.38193 8.95759 5.31877C8.93006 5.25561 8.88977 5.19882 8.83925 5.15196C8.78874 5.10511 8.72908 5.0692 8.66403 5.04649C8.59898 5.02378 8.52994 5.01476 8.46124 5.02C7.12664 5.12302 5.84956 5.60655 4.78138 6.41325C3.7132 7.21995 2.89872 8.31601 2.43448 9.5715C1.97024 10.827 1.8757 12.1893 2.16208 13.4968C2.44846 14.8044 3.10374 16.0025 4.05025 16.949C4.99677 17.8955 6.19482 18.5508 7.5024 18.8372C8.80997 19.1235 10.1722 19.029 11.4277 18.5648C12.6832 18.1005 13.7793 17.286 14.586 16.2179C15.3927 15.1497 15.8762 13.8726 15.9792 12.538C15.9845 12.4693 15.9755 12.4003 15.9527 12.3352C15.93 12.2702 15.8941 12.2105 15.8473 12.16C15.8004 12.1095 15.7436 12.0692 15.6805 12.0416C15.6173 12.0141 15.5491 11.9999 15.4802 12H10.4992C10.1014 12 9.71988 11.842 9.43858 11.5607C9.15727 11.2794 8.99924 10.8978 8.99924 10.5V5.519ZM2.99924 12C2.99902 10.5819 3.50108 9.20959 4.41636 8.12645C5.33165 7.0433 6.60099 6.31935 7.99924 6.083V10.5C7.99924 10.8283 8.0639 11.1534 8.18954 11.4567C8.31518 11.76 8.49932 12.0356 8.73147 12.2678C9.20031 12.7366 9.8362 13 10.4992 13H14.9162C14.6615 14.4801 13.8611 15.8109 12.6732 16.7297C11.4852 17.6485 9.99589 18.0885 8.49932 17.9629C7.00275 17.8373 5.60764 17.1552 4.58939 16.0513C3.57115 14.9474 3.00376 13.5018 2.99924 12Z" fill="black"/>
</g>
<defs>
<clipPath id="clip0_85_5471">
<rect width="20" height="20" fill="white" transform="translate(0 0.824707)"/>
</clipPath>
</defs>
</svg>
