<svg width="24" height="25" viewBox="0 0 24 25" fill="none" xmlns="http://www.w3.org/2000/svg">
<path fill-rule="evenodd" clip-rule="evenodd" d="M5.66895 5.58471C5.69596 5.35765 5.77556 5.14003 5.90143 4.94913C6.0273 4.75823 6.19597 4.59933 6.39403 4.48506C6.59209 4.37079 6.81408 4.30429 7.04234 4.29087C7.27061 4.27744 7.49886 4.31745 7.70895 4.40771C8.77095 4.86171 11.1509 5.94071 14.1709 7.68371C17.1919 9.42771 19.3169 10.9507 20.2399 11.6417C21.0279 12.2327 21.0299 13.4047 20.2409 13.9977C19.3269 14.6847 17.2279 16.1877 14.1709 17.9537C11.1109 19.7197 8.75895 20.7857 7.70695 21.2337C6.80095 21.6207 5.78695 21.0337 5.66895 20.0567C5.53095 18.9147 5.27295 16.3217 5.27295 12.8197C5.27295 9.31971 5.52995 6.72771 5.66895 5.58471Z" fill="#0074FF"/>
</svg>
