<svg width="50" height="50" viewBox="0 0 50 50" fill="none" xmlns="http://www.w3.org/2000/svg">
<path d="M35.354 25.5209V34.8959C35.354 42.7084 32.229 45.8334 24.4165 45.8334H15.0415C7.229 45.8334 4.104 42.7084 4.104 34.8959V25.5209C4.104 17.7084 7.229 14.5834 15.0415 14.5834H24.4165C32.229 14.5834 35.354 17.7084 35.354 25.5209Z" stroke="#DF5E63" stroke-width="3.125" stroke-linecap="round" stroke-linejoin="round"/>
<path d="M45.7709 15.625C45.7709 21.6041 41.2084 26.5 35.3542 27.0208V25.5208C35.3542 17.7083 32.2292 14.5833 24.4167 14.5833H22.9167C23.4376 8.72913 28.3334 4.16663 34.3126 4.16663C40.1251 4.16663 44.9167 8.47913 45.6459 14.1041C45.7292 14.5833 45.7709 15.1041 45.7709 15.625Z" stroke="#DF5E63" stroke-width="3.125" stroke-linecap="round" stroke-linejoin="round"/>
</svg>
