<svg width="50" height="50" viewBox="0 0 50 50" fill="none" xmlns="http://www.w3.org/2000/svg">
<path d="M24.9999 45.625C24.7569 45.625 24.5312 45.6077 24.3228 45.5729C24.1145 45.5382 23.9062 45.4861 23.6978 45.4167C19.0103 43.8542 15.2777 40.9639 12.4999 36.7459C9.72214 32.5278 8.33325 27.9875 8.33325 23.125V13.2813C8.33325 12.4132 8.58534 11.632 9.0895 10.9375C9.59367 10.2431 10.2444 9.7396 11.0416 9.4271L23.5416 4.7396C24.0277 4.56599 24.5138 4.47919 24.9999 4.47919C25.486 4.47919 25.9721 4.56599 26.4583 4.7396L38.9583 9.4271C39.7569 9.7396 40.4083 10.2431 40.9124 10.9375C41.4166 11.632 41.668 12.4132 41.6666 13.2813V23.125C41.6666 27.9861 40.2777 32.5264 37.4999 36.7459C34.7221 40.9653 30.9895 43.8556 26.302 45.4167C26.0937 45.4861 25.8853 45.5382 25.677 45.5729C25.4687 45.6077 25.243 45.625 24.9999 45.625ZM24.9999 41.4584C28.611 40.3125 31.5971 38.0209 33.9583 34.5834C36.3194 31.1459 37.4999 27.3264 37.4999 23.125V13.2813L24.9999 8.59377L12.4999 13.2813V23.125C12.4999 27.3264 13.6805 31.1459 16.0416 34.5834C18.4027 38.0209 21.3888 40.3125 24.9999 41.4584Z" fill="black"/>
<path d="M24.9999 45.625C24.7569 45.625 24.5312 45.6077 24.3228 45.5729C24.1145 45.5382 23.9062 45.4861 23.6978 45.4167C19.0103 43.8542 15.2777 40.9639 12.4999 36.7459C9.72214 32.5278 8.33325 27.9875 8.33325 23.125V13.2813C8.33325 12.4132 8.58534 11.632 9.0895 10.9375C9.59367 10.2431 10.2444 9.7396 11.0416 9.4271L23.5416 4.7396C24.0277 4.56599 24.5138 4.47919 24.9999 4.47919C25.486 4.47919 25.9721 4.56599 26.4583 4.7396L38.9583 9.4271C39.7569 9.7396 40.4083 10.2431 40.9124 10.9375C41.4166 11.632 41.668 12.4132 41.6666 13.2813V23.125C41.6666 27.9861 40.2777 32.5264 37.4999 36.7459C34.7221 40.9653 30.9895 43.8556 26.302 45.4167C26.0937 45.4861 25.8853 45.5382 25.677 45.5729C25.4687 45.6077 25.243 45.625 24.9999 45.625ZM24.9999 41.4584C28.611 40.3125 31.5971 38.0209 33.9583 34.5834C36.3194 31.1459 37.4999 27.3264 37.4999 23.125V13.2813L24.9999 8.59377L12.4999 13.2813V23.125C12.4999 27.3264 13.6805 31.1459 16.0416 34.5834C18.4027 38.0209 21.3888 40.3125 24.9999 41.4584Z" fill="url(#paint0_linear_14_595)"/>
<defs>
<linearGradient id="paint0_linear_14_595" x1="24.9999" y1="4.47919" x2="24.9999" y2="45.625" gradientUnits="userSpaceOnUse">
<stop stop-color="#3171DE"/>
<stop offset="1" stop-color="#704AF2"/>
</linearGradient>
</defs>
</svg>
