<svg width="20" height="21" viewBox="0 0 20 21" fill="none" xmlns="http://www.w3.org/2000/svg">
<g clip-path="url(#clip0_85_5501)">
<path d="M12.3737 10.5746C12.3737 10.5746 11.0278 14.3671 10.3887 15.0292C10.0801 15.3403 9.6614 15.5174 9.22322 15.5221C8.78505 15.5269 8.36264 15.3588 8.04743 15.0544C7.73223 14.75 7.54959 14.3337 7.53906 13.8956C7.52852 13.4576 7.69094 13.033 7.99115 12.7138C8.63032 12.0513 12.3737 10.5746 12.3737 10.5746Z" stroke="black" stroke-width="2" stroke-linejoin="round"/>
<path d="M15.9375 18.9375C16.7511 18.1257 17.3963 17.1612 17.8361 16.0994C18.2758 15.0376 18.5014 13.8993 18.5 12.75C18.5 7.9175 14.5825 4 9.75 4C4.9175 4 1 7.9175 1 12.75C1 15.1662 1.97917 17.3537 3.5625 18.9375M9.75 4.41667V6.08333M15.9354 7.3925L14.6404 8.44125M17.4675 14.0971L15.8437 13.7221M2.03208 14.0971L3.65625 13.7221M3.56458 7.3925L4.85958 8.44125" stroke="black" stroke-width="2" stroke-linecap="round" stroke-linejoin="round"/>
</g>
<defs>
<clipPath id="clip0_85_5501">
<rect width="20" height="20" fill="white" transform="translate(0 0.824707)"/>
</clipPath>
</defs>
</svg>
