<svg width="46" height="46" viewBox="0 0 46 46" fill="none" xmlns="http://www.w3.org/2000/svg">
<g id="tabler:user-filled">
<path id="Vector" d="M23.3813 3.76666C25.2438 3.76666 27.0644 4.31894 28.6129 5.35366C30.1615 6.38837 31.3684 7.85905 32.0812 9.57972C32.7939 11.3004 32.9804 13.1938 32.617 15.0204C32.2537 16.8471 31.3568 18.525 30.0399 19.8419C28.723 21.1588 27.0451 22.0557 25.2184 22.419C23.3918 22.7824 21.4984 22.5959 19.7777 21.8832C18.057 21.1705 16.5864 19.9635 15.5517 18.4149C14.5169 16.8664 13.9647 15.0458 13.9647 13.1833L13.9741 12.7746C14.0794 10.3503 15.1165 8.06024 16.8692 6.38197C18.6218 4.7037 20.9547 3.7668 23.3813 3.76666ZM27.148 26.3666C29.6454 26.3666 32.0406 27.3587 33.8066 29.1247C35.5725 30.8907 36.5646 33.2858 36.5646 35.7833V37.6666C36.5646 38.6656 36.1678 39.6237 35.4614 40.3301C34.755 41.0364 33.797 41.4333 32.798 41.4333H13.9647C12.9657 41.4333 12.0076 41.0364 11.3012 40.3301C10.5948 39.6237 10.198 38.6656 10.198 37.6666V35.7833C10.198 33.2858 11.1901 30.8907 12.9561 29.1247C14.722 27.3587 17.1172 26.3666 19.6147 26.3666H27.148Z" fill="white"/>
</g>
</svg>
